<?xml version="1.0" encoding="iso-8859-1"?>
<!-- Uploaded to: SVG Repo, www.svgrepo.com, Generator: SVG Repo Mixer Tools -->
<!DOCTYPE svg PUBLIC "-//W3C//DTD SVG 1.1//EN" "http://www.w3.org/Graphics/SVG/1.1/DTD/svg11.dtd">
<svg fill="#000000" height="800px" width="800px" version="1.1" id="Capa_1" xmlns="http://www.w3.org/2000/svg" xmlns:xlink="http://www.w3.org/1999/xlink" 
	 viewBox="0 0 441.978 441.978" xml:space="preserve">
<path d="M439.59,85.916c-4.509-19.04-15.34-37.873-30.498-53.03C393.822,17.615,375.611,7.1,356.428,2.476
	c-19.349-4.665-38.194-2.691-53.063,5.556c-3.943,2.188-10.542,5.848-36.516,65.504c-10.486,24.084-19.984,47.827-22.559,54.312
	l-58.957,62.642c-3.919-3.689-10.089-3.617-13.922,0.214c-3.905,3.905-3.905,10.237,0,14.143l0.212,0.211L10.504,376.247
	c-14.322,15.22-13.951,39.624,0.827,54.401c7.541,7.541,17.587,11.329,27.642,11.329c9.648,0,19.306-3.49,26.759-10.503
	l171.191-161.119l0.21,0.211c3.905,3.904,10.237,3.904,14.143,0c3.832-3.833,3.903-10.002,0.214-13.921l63.36-59.633
	c6.59-2.573,29.948-11.767,53.662-21.939c59.106-25.354,62.852-31.923,65.09-35.848C442.083,124.352,444.21,105.42,439.59,85.916z
	 M52.025,416.909c-7.303,6.874-19.462,6.688-26.553-0.403c-7.091-7.09-7.275-19.25-0.404-26.552l160.703-170.749l37.002,37.002
	L52.025,416.909z M237.344,242.493l-37.859-37.859l54.312-57.707l11.207,11.207c0.069,0.071,0.14,0.143,0.212,0.212l18.44,18.439
	c0.055,0.057,0.11,0.112,0.166,0.166l11.23,11.23L237.344,242.493z M416.488,128.856c-7.091,7.127-58.324,29.723-104.621,47.856
	l-5.863-5.863l59.155-44.598c4.41-3.325,5.29-9.596,1.965-14.006c-3.324-4.407-9.594-5.288-14.005-1.965l-61.395,46.288
	l-6.314-6.314l46.287-61.394c3.325-4.41,2.445-10.681-1.965-14.006c-4.41-3.324-10.681-2.444-14.005,1.965l-44.598,59.154
	l-6.12-6.12c18.542-46.466,41.395-97.491,48.555-104.604c22.511-12.076,56.627-2.982,81.388,21.778
	C419.947,72.023,428.943,106.332,416.488,128.856z"/>
</svg>