<?xml version="1.0" encoding="iso-8859-1"?>
<!-- Uploaded to: SVG Repo, www.svgrepo.com, Generator: SVG Repo Mixer Tools -->
<svg fill="#000000" height="800px" width="800px" version="1.1" id="Layer_1" xmlns="http://www.w3.org/2000/svg" xmlns:xlink="http://www.w3.org/1999/xlink" 
	 viewBox="0 0 512 512" xml:space="preserve">
<g>
	<g>
		<path d="M273.067,204.8V512h102.4V204.8H273.067z M341.333,477.867H307.2V295.822h34.133V477.867z M341.333,261.689H307.2v-22.756
			h34.133V261.689z"/>
	</g>
</g>
<g>
	<g>
		<path d="M238.933,85.333V51.2c0-28.232-22.968-51.2-51.2-51.2s-51.2,22.968-51.2,51.2v34.133c0,22.249,14.27,41.219,34.133,48.265
			v128.091h-34.133V512h102.4V261.689H204.8V133.598C224.663,126.553,238.933,107.583,238.933,85.333z M204.8,477.867h-34.133
			V352.711H204.8V477.867z M204.8,318.578h-34.133v-22.756H204.8V318.578z M187.733,102.4c-9.411,0-17.067-7.656-17.067-17.067V51.2
			c0-9.411,7.656-17.067,17.067-17.067S204.8,41.789,204.8,51.2v34.133C204.8,94.744,197.144,102.4,187.733,102.4z"/>
	</g>
</g>
</svg>