<?xml version="1.0" encoding="iso-8859-1"?>

<!DOCTYPE svg PUBLIC "-//W3C//DTD SVG 1.1//EN" "http://www.w3.org/Graphics/SVG/1.1/DTD/svg11.dtd">
<!-- Uploaded to: SVG Repo, www.svgrepo.com, Generator: SVG Repo Mixer Tools -->
<svg height="800px" width="800px" version="1.1" id="_x35_" xmlns="http://www.w3.org/2000/svg" xmlns:xlink="http://www.w3.org/1999/xlink" 
	 viewBox="0 0 512 512"  xml:space="preserve">
<g>
	<g>
		<path style="fill:#61A85F;" d="M508.832,174.896l-33.719-12.256c-10.969-4.129-21.396-7.989-31.349-11.849
			c-19.906-7.65-37.849-15.099-54.099-22.546c-3.656-1.626-7.177-3.318-10.63-5.011c-12.052-5.823-23.021-11.578-33.109-17.401
			c-3.047-1.76-6.026-3.521-8.87-5.281c-4.807-2.911-9.411-5.755-13.812-8.802c-4.13-2.776-8.125-5.484-11.917-8.328
			c-10.156-7.515-19.026-15.167-27.083-23.156c-5.281-5.078-10.224-10.427-14.828-15.912c-2.505-2.776-4.943-5.755-7.245-8.734
			c-2.166-2.776-4.198-5.485-6.161-8.328c-0.203-0.135-0.406-0.474-0.542-0.745c-1.015-1.354-1.963-2.709-2.911-4.062
			c-2.979-4.537-5.823-9.209-8.328-13.881c-0.677-1.219-1.286-2.505-1.896-3.792c-1.693-3.521-3.25-7.177-4.536-10.901
			c-1.693-5.01-2.911-10.156-3.385-15.37c-0.542-5.349-0.338-10.563,0.745-15.708c1.084-5.281,3.047-10.292,5.891-15.167
			c2.911-4.739,6.704-9.276,11.443-13.542c0.948-0.813,1.964-1.625,2.979-2.437c0.203-0.068,0.406-0.339,0.61-0.474
			c3.927-2.979,8.328-5.619,13.271-7.99c2.167-0.948,4.401-1.828,6.703-2.708c3.318-1.219,6.838-2.37,10.495-3.25h0.068
			c1.286-0.338,2.573-0.542,3.927-0.88c14.151,8.735,27.896,18.349,41.234,28.776l0.068,0.068
			C389.801-9.542,439.702,49.094,473.285,103.328C488.993,128.786,501.181,153.23,508.832,174.896z"/>
		<path style="fill:#6EBC6D;" d="M509.78,175.167l-0.948-0.271c-7.651-21.666-19.839-46.11-35.547-71.567
			C439.702,49.094,389.801-9.542,331.843-54.771l-0.068-0.068c-13.339-10.427-27.083-20.041-41.234-28.776
			c0.203,0,0.474-0.068,0.745-0.135c8.057-1.558,16.724-2.37,25.865-2.099c9.141,0.135,18.687,1.354,28.437,3.521
			c9.75,2.235,19.703,5.484,29.589,9.682c8.057,3.385,16.115,7.583,23.969,12.323c5.891,3.521,11.713,7.38,17.401,11.714
			c5.281,3.927,10.495,8.193,15.505,12.729c10.833,9.75,20.989,20.786,30.13,32.907c4.401,5.755,8.599,11.781,12.458,18.078
			c1.286,2.031,2.573,4.13,3.792,6.229c12.797,22.005,22.615,46.651,28.235,72.787c2.844,13.135,4.604,26.609,5.146,40.218
			C512.353,147.88,511.744,161.557,509.78,175.167z"/>
	</g>
	<path style="fill:#589959;" d="M379.035,123.234c-12.052-5.823-23.021-11.578-33.109-17.401c-3.047-1.76-6.026-3.521-8.87-5.281
		c-4.807-2.911-9.411-5.755-13.812-8.802c-12.052-57.281-30.469-135.62-47.193-171.234c-1.76-3.724-3.453-6.974-5.146-9.615
		c-0.271-0.474-0.542-0.88-0.813-1.286c5.01,1.693,9.885,3.927,14.489,6.636c0.677,0.271,1.286,0.609,1.964,1.015h0.068
		c1.963,1.219,3.927,2.505,5.891,3.792c1.219,0.813,2.505,1.693,3.724,2.641c0.406,0.271,0.745,0.61,1.151,0.88
		C353.916-32.698,377.207,66.834,379.035,123.234z"/>
	<g>
		<path style="fill:#61A85F;" d="M277.676-21.458c-0.542,5.214-1.76,10.36-3.453,15.37c-1.49,4.333-3.25,8.599-5.417,12.594
			c0,0.068-0.068,0.068-0.068,0.136c-0.271,0.677-0.61,1.286-0.948,1.963c-2.505,4.672-5.281,9.344-8.328,13.881
			c-1.084,1.557-2.234,3.182-3.453,4.807c-0.136,0.338-0.338,0.542-0.542,0.813c-1.76,2.505-3.656,5.078-5.552,7.516
			c-2.708,3.385-5.417,6.771-8.328,9.953c-4.333,5.01-8.87,9.953-13.745,14.693c-8.057,7.989-16.995,15.64-27.151,23.156
			c-8.057,6.026-16.859,11.917-26.677,17.807c-2.573,1.49-5.214,3.047-7.922,4.604c-13,7.516-27.49,14.963-43.739,22.412
			c-16.25,7.447-34.193,14.896-54.099,22.546c-9.953,3.86-20.38,7.72-31.349,11.849l-23.766,8.531l-7.38,2.777l-2.573,0.947
			c0.271-0.812,0.61-1.693,0.948-2.573c0.88-2.437,1.76-4.875,2.776-7.312c5.755-14.422,13.406-30.13,22.682-46.313
			c0-0.068,0.068-0.135,0.136-0.202C62.837,60.604,116.327-4.666,179.363-54.026l0.068-0.067
			c13.677-10.63,27.693-20.651,42.114-29.521c1.084,0.136,2.099,0.406,3.115,0.745c6.568,1.422,12.594,3.521,18.011,6.093
			c4.739,2.235,9.005,4.875,12.797,7.583c0.203,0.136,0.406,0.406,0.61,0.406c1.219,0.948,2.37,2.031,3.521,2.911
			c4.739,4.266,8.531,8.802,11.375,13.542c2.844,4.875,4.807,9.886,5.891,15.167C277.947-32.021,278.15-26.807,277.676-21.458z"/>
		<path style="fill:#6EBC6D;" d="M221.545-83.615c-14.421,8.87-28.437,18.891-42.114,29.521l-0.068,0.067
			C116.327-4.666,62.837,60.604,29.728,118.495c-0.068,0.068-0.136,0.135-0.136,0.202c-9.276,16.183-16.927,31.891-22.682,46.313
			c-1.016,2.437-1.896,4.875-2.776,7.312c-0.338,0.88-0.677,1.76-0.948,2.573l-0.88,0.271c-0.271-1.76-0.542-3.521-0.677-5.349
			c-0.542-3.724-0.88-7.448-1.151-11.239c-0.542-8.058-0.61-16.251-0.271-24.24c0.61-13.609,2.37-27.083,5.146-40.218
			c5.62-26.136,15.438-50.782,28.235-72.787c12.864-22.005,28.708-41.37,46.38-57.214c17.672-15.979,37.172-28.369,56.943-36.766
			c9.886-4.198,19.771-7.448,29.521-9.682c9.75-2.167,19.365-3.385,28.437-3.521c9.141-0.271,17.875,0.541,25.865,2.099
			C221.004-83.682,221.275-83.615,221.545-83.615z"/>
	</g>
	<path style="fill:#6EBC6D;" d="M337.056,100.552c-11.307,45.094-36.766,93.031-81.588,137.854
		c-44.62-44.687-70.078-92.354-81.453-137.177C152.28,16.255,180.853-58.63,224.66-82.869c9.614-5.417,20.042-8.328,30.807-8.328
		c5.281,0,10.427,0.745,15.438,2.099c4.74,1.219,9.276,2.979,13.677,5.349c0.677,0.271,1.286,0.609,1.964,1.015h0.068
		c1.963,1.219,3.927,2.505,5.891,3.792c1.219,0.813,2.505,1.693,3.724,2.641c0.406,0.271,0.745,0.61,1.151,0.88
		C334.618-45.563,356.624,23.297,337.056,100.552z"/>
	<path style="fill:#61A85F;" d="M337.056,100.552c-11.307,45.094-36.766,93.031-81.588,137.854V-91.198
		c5.281,0,10.427,0.745,15.438,2.099c4.74,1.219,9.276,2.979,13.677,5.349c0.677,0.271,1.286,0.609,1.964,1.015h0.068
		c1.963,1.219,3.927,2.505,5.891,3.792c1.219,0.813,2.505,1.693,3.724,2.641c0.406,0.271,0.745,0.61,1.151,0.88
		C334.618-45.563,356.624,23.297,337.056,100.552z"/>
	<path style="opacity:0.36;fill:#FFFFFF;" d="M255.503-61.298c-13.433,0-23.264,134.309,0,243.458
		C278.767,73.011,268.939-61.298,255.503-61.298z"/>
	<g style="opacity:0.36;">
		<path style="fill:#FFFFFF;" d="M175.827-54.811c-0.794,0-1.676,0.062-2.647,0.19c-4.151,0.544-9.823,2.371-16.35,5.615
			c-6.536,3.235-13.911,7.864-21.665,13.753c-7.758,5.886-15.901,13.019-24.099,21.19C94.662,2.275,78.016,22.749,63.314,45.591
			c-7.347,11.427-14.217,23.442-20.227,35.855c-3.004,6.21-5.791,12.517-8.26,18.908c-2.454,6.385-4.644,12.868-6.138,19.383
			c4.115-5.247,8.512-10.238,12.948-15.257c4.442-5.006,8.949-9.989,13.456-14.974c9.02-9.965,18.044-19.933,26.847-29.738
			l49.062-54.856c7.342-8.159,14.16-15.658,20.284-22.286c6.124-6.632,11.552-12.389,16.062-17.176
			c4.504-4.798,8.099-8.625,10.458-11.635c2.35-3.007,3.482-5.25,2.787-6.792C180.067-54.14,178.436-54.811,175.827-54.811
			L175.827-54.811z"/>
	</g>
	<g style="opacity:0.36;">
		<path style="fill:#FFFFFF;" d="M331.222-54.811c0.793,0,1.675,0.062,2.647,0.19c4.15,0.544,9.819,2.371,16.35,5.615
			c6.534,3.235,13.911,7.864,21.665,13.753c7.758,5.886,15.898,13.019,24.099,21.19c16.403,16.338,33.051,36.812,47.752,59.654
			c7.347,11.427,14.216,23.442,20.227,35.855c3.004,6.21,5.791,12.517,8.26,18.908c2.451,6.385,4.644,12.868,6.138,19.383
			c-4.115-5.247-8.515-10.238-12.948-15.257c-4.442-5.006-8.949-9.989-13.456-14.974c-9.02-9.965-18.043-19.933-26.847-29.738
			L376.047,4.914c-7.342-8.159-14.163-15.658-20.287-22.286c-6.124-6.632-11.549-12.389-16.059-17.176
			c-4.504-4.798-8.099-8.625-10.458-11.635c-2.353-3.007-3.483-5.25-2.787-6.792C326.979-54.14,328.613-54.811,331.222-54.811
			L331.222-54.811z"/>
	</g>
</g>
</svg>